# xmcd
#
# Track frame offsets:
#	150
#	18485
#	35438
#	60764
#	80645
#	90971
#	112987
#	135668
#	154766
#	171199
#	181682
#	202374
#
# Disc length: 3054 seconds
#
# Revision: 1
# Processed by: cddbd v1.5.1PL2 Copyright (c) Steve Scherf et al.
# Submitted via: audiograbber 1.83.01
#
DISCID=900bec0c
DTITLE=Dixie Chicks - Home
DYEAR=1900
DGENRE=
TTITLE0=Long Time Gone
TTITLE1=Landslide
TTITLE2=Travelia Soldier
TTITLE3=Truth No. 2
TTITLE4=White Trash Wedding
TTITLE5=A Home
TTITLE6=More Love
TTITLE7=I Believe In Love
TTITLE8=Tortured, Tangled Hearts
TTITLE9=Lil' Jack Slade
TTITLE10=Godspeed (Sweet Dreams)
TTITLE11=Top Of The World
EXTD=
EXTT0=
EXTT1=
EXTT2=
EXTT3=
EXTT4=
EXTT5=
EXTT6=
EXTT7=
EXTT8=
EXTT9=
EXTT10=
EXTT11=
PLAYORDER=
